<mxfile host="app.diagrams.net" modified="2023-04-24T12:25:33.761Z" agent="Mozilla/5.0 (Windows NT 10.0; Win64; x64) AppleWebKit/537.36 (KHTML, like Gecko) Chrome/112.0.0.0 Safari/537.36" etag="mr7lD3GQjj_Fmq1HKnuy" version="21.1.5" type="device">
  <diagram name="lientuc" id="lRjZ6J2YZjkf5H5YAVvb">
    <mxGraphModel dx="1371" dy="804" grid="1" gridSize="10" guides="1" tooltips="1" connect="1" arrows="1" fold="1" page="1" pageScale="1" pageWidth="827" pageHeight="1169" math="0" shadow="0">
      <root>
        <mxCell id="0" />
        <mxCell id="1" parent="0" />
        <mxCell id="_DSc94vBjH1FXkfB-_R5-6" style="edgeStyle=orthogonalEdgeStyle;rounded=0;orthogonalLoop=1;jettySize=auto;html=1;exitX=1;exitY=0.5;exitDx=0;exitDy=0;exitPerimeter=0;entryX=0;entryY=0.5;entryDx=0;entryDy=0;entryPerimeter=0;endArrow=none;endFill=0;dashed=1;" edge="1" parent="1" source="_DSc94vBjH1FXkfB-_R5-2" target="_DSc94vBjH1FXkfB-_R5-5">
          <mxGeometry relative="1" as="geometry" />
        </mxCell>
        <mxCell id="_DSc94vBjH1FXkfB-_R5-2" value="Начало" style="strokeWidth=2;html=1;shape=mxgraph.flowchart.terminator;whiteSpace=wrap;" vertex="1" parent="1">
          <mxGeometry x="70" y="40" width="146" height="40" as="geometry" />
        </mxCell>
        <mxCell id="_DSc94vBjH1FXkfB-_R5-3" value="Конец&lt;br&gt;" style="strokeWidth=2;html=1;shape=mxgraph.flowchart.terminator;whiteSpace=wrap;" vertex="1" parent="1">
          <mxGeometry x="640" y="630" width="146" height="40" as="geometry" />
        </mxCell>
        <mxCell id="_DSc94vBjH1FXkfB-_R5-5" value="&lt;font style=&quot;font-size: 13px;&quot;&gt;Линейная обработка данных&lt;br&gt;&lt;br&gt;Вход: количество срок и&amp;nbsp;&lt;br&gt;стольбцов матриц А и В,&lt;br&gt;количество матриц сnt&lt;br&gt;&lt;/font&gt;" style="strokeWidth=2;html=1;shape=mxgraph.flowchart.annotation_1;align=left;pointerEvents=1;" vertex="1" parent="1">
          <mxGeometry x="260" y="10" width="50" height="100" as="geometry" />
        </mxCell>
        <mxCell id="_DSc94vBjH1FXkfB-_R5-8" value="создать очереди этапов обработки qA1, qA2, qA3, qB1, qB2, qB3, q_res" style="rounded=0;whiteSpace=wrap;html=1;" vertex="1" parent="1">
          <mxGeometry x="83" y="140" width="120" height="60" as="geometry" />
        </mxCell>
        <mxCell id="_DSc94vBjH1FXkfB-_R5-11" value="Цикл по i&lt;br&gt;(0 &amp;lt;= i &amp;lt; cnt)" style="shape=loopLimit;whiteSpace=wrap;html=1;" vertex="1" parent="1">
          <mxGeometry x="93" y="240" width="100" height="60" as="geometry" />
        </mxCell>
        <mxCell id="_DSc94vBjH1FXkfB-_R5-12" value="Конец цикла по i&lt;br&gt;i = i + 1" style="shape=loopLimit;whiteSpace=wrap;html=1;direction=west;" vertex="1" parent="1">
          <mxGeometry x="93" y="460" width="100" height="60" as="geometry" />
        </mxCell>
      </root>
    </mxGraphModel>
  </diagram>
</mxfile>
